Patient4_TMGait_0pt4_02_left_19_EMG.mot
version=1
nRows=26
nColumns=33
inDegrees=no
endheader
time	1LAddLong	2LGlutMax	3LGlutMed	4LIliopsoas	5LSemiMemb	6LBicFemLong	7LRecFem	8LVastMed	9LVastLat	10LGasMed	11LTibAnt	12lTibPost	13LPeroneusLong	14LSol	15LExtDigLong	16LFlexDigLong	17RAddLong	18RGlutMax	19RGlutMed	20RIliopsoas	21RSemiMemb	22RBicFemLong	23RRecFem	24RVastMed	25RVastLat	26RGasMed	27RTibAnt	28RTibPost	29RPeroneusLong	30RSol	31RExtDigLong	32RFlexDigLong
26.86	0.008392	-0.097198	0.1004	-0.000458	0.030212	-0.007935	-0.062561	0.000305	0.011749	-0.05188	0.005646	-0.014801	-0.02121	-0.062256	0.019226	-0.011902	0.038605	-0.05661	0.11597	0.00885	-0.050964	0.005341	0.37857	0.19058	-0.024567	-0.001068	0.6337	-0.007629	0.43793	0.002899	-0.000305	-0.005798
26.861	0.008545	-0.10757	0.089264	-0.009308	0.001831	0.001984	-0.070801	0.001984	0.020599	-0.040283	0.006256	-0.019379	-0.016327	-0.066986	0.013885	-0.01297	0.016937	-0.1767	-0.066528	0.067749	-0.039978	0.009918	0.019989	0.17502	-0.11017	0.000763	0.11841	-0.004425	0.35889	0.056152	0.003357	-0.003357
26.862	0.005341	-0.079193	0.054016	-0.001221	-0.015259	0.028839	-0.074768	0.000763	0.012207	-0.046997	0.006409	-0.024567	-0.015411	-0.07019	0.009613	0.009766	-0.004578	-0.1886	0.18356	-0.017395	-0.026093	0.037384	-0.010529	-0.047913	-0.16296	-0.002441	-1.2511	-0.002441	0.22018	0.093536	0.000458	-0.010834
26.863	0.010681	-0.090179	0.025635	0.010681	-0.031891	0.024719	-0.064545	0.004578	0.02243	-0.036316	0.014191	-0.027008	-0.016022	-0.067902	0.016022	-0.00473	-0.009918	-0.22461	0.12924	-0.061798	-0.014038	0.063171	-0.010071	-0.070343	-0.11185	-0.011292	-1.2576	0.000305	-0.16953	-0.056305	-0.011292	-0.003662
26.864	0.006714	-0.10422	0.007324	0.01358	-0.037079	0.02594	-0.058136	0.001526	0.020142	-0.027313	0.002899	-0.018616	-0.020142	-0.060425	0.013885	-0.00351	-0.0177	-0.18448	0.027161	-0.062103	-0.007935	0.072327	0.081787	-0.046234	-0.13321	-0.016022	-0.11383	0.000458	-0.76309	0.053864	0.003204	-0.007935
26.865	0.007629	-0.07843	-0.003662	0.028381	-0.02121	0.051422	-0.067902	0.005341	0.013275	-0.026093	-0.005035	-0.029755	-0.009155	-0.062561	0.014648	0.001373	0.010681	-0.15793	0.088348	-0.029602	-0.014496	0.026703	-0.14694	-0.12253	-0.20447	-0.013428	0.9375	0.000763	-0.1445	0.14847	-0.006409	-0.010071
26.866	0.012665	-0.11032	-0.040283	0.014648	-0.031891	0.038147	-0.066071	0.006866	0.017548	-0.005188	-0.049744	-0.021667	-0.014038	-0.049133	0.014038	-0.014038	-0.008545	-0.1918	-0.34912	0.054016	-0.001984	0.027161	-0.40588	-0.18341	-0.068207	-0.011444	0.90057	0.003357	0.78262	0.004272	0.000458	-0.010376
26.867	0.012817	-0.12283	-0.042419	0.000916	-0.01358	0.024261	-0.063019	0.003357	0.013733	-0.016937	-0.052948	-0.020752	-0.032806	-0.060425	0.015564	0.00351	-0.019226	-0.22614	-0.35507	0.1445	0.002747	0.066986	-0.4808	0.11078	0.10971	-0.011292	1.1124	-0.002289	0.98145	-0.028839	-0.00351	-0.006409
26.868	0.065613	-0.077362	-0.048065	0.007629	0.011902	0.012207	-0.068512	0.010681	0.002899	-0.02594	-0.023956	-0.029449	-0.024109	-0.055542	0.003204	0.012512	-0.020752	-0.18448	0.075226	0.1152	0.00824	0.045929	-0.37033	0.40512	0.31769	-0.009308	0.69794	-0.001068	0.42252	0.010986	0.000916	-0.009918
26.869	-0.025024	-0.097198	-0.050507	0.001984	-0.014038	-0.014191	-0.076904	0.003052	0.011292	-0.033264	0.036163	-0.025024	0.00473	-0.051575	0.00351	0.003967	0.003204	-0.21042	-0.26047	0.035553	-0.011292	0.032196	-0.028076	0.37918	0.30151	-0.006256	0.071106	-0.003052	-0.21332	0.014954	0.001526	-0.00946
26.87	0.048981	-0.08255	-0.08255	0.006409	0.024109	-0.025177	-0.070953	0.015106	0.007782	-0.034637	0.089417	-0.026093	-0.033264	-0.06958	0.037689	-0.005951	0.002289	-0.22751	-0.27145	0.023041	-0.012817	0.027466	-0.05127	0.13901	0.21454	-0.007782	-0.31006	-0.003662	-0.95261	0.003967	-0.00061	-0.000305
26.871	0.008392	-0.1181	-0.081482	0.005951	0.006256	0.002289	-0.071716	0.005951	0.002441	-0.021057	0.10422	-0.019531	-0.049896	-0.086517	0.050201	-0.000305	0.019073	-0.271	-0.25284	-0.007477	-0.016937	0.028381	-0.12177	-0.088654	0.12024	-0.006104	-0.6662	-0.001221	-1.3092	-0.095215	0.000916	-0.001526
26.872	0.005646	-0.11765	-0.075531	-0.000458	-0.032043	0.006714	-0.074768	0.007629	0.007935	-0.02655	0.11475	-0.027161	-0.045166	-0.04776	0.047302	0.000916	0.021515	-0.2475	-0.20142	-0.031433	-0.021515	0.038452	-0.2504	-0.50354	0.046997	-0.012817	0.058289	-0.004272	-0.39856	0.004272	0.00473	-0.008392
26.873	0.002289	-0.13794	-0.042877	0.011749	-0.05661	0.011902	-0.068512	0.003815	0.00885	-0.03891	0.13641	-0.023041	-0.02121	-0.033875	-0.003357	0.004883	0.001526	-0.24445	-0.069733	-0.10696	-0.012207	0.044861	-0.51559	-0.70664	-0.13046	-0.014343	0.33966	-0.003662	0.23193	0.095367	-0.002899	-0.013733
26.874	0.008392	-0.10391	0.043945	-0.000916	-0.027618	0.001526	-0.057831	0.007477	-0.000763	-0.027466	0.0354	-0.027008	-0.02121	-0.02594	-0.032349	-0.019379	-0.000305	-0.17639	0.09613	-0.096436	-0.007782	0.030365	-0.49088	-0.46188	-0.12344	-0.012207	0.27924	-0.003967	0.12482	0.055084	0.005798	-0.011292
26.875	0.011444	-0.13428	0.040436	-0.010834	0.050201	0.009155	-0.077667	0.007935	0.008545	-0.035858	-0.097961	-0.027313	0.019836	-0.038147	-0.074463	-0.004272	0.012665	-0.18341	0.21072	-0.071716	-0.010071	0.01709	-0.24628	-0.12329	0.03418	-0.008392	0.28259	-0.002289	0.005188	0.053101	0.003662	-0.008698
26.876	0.007172	-0.10635	0.028229	0.016174	0.069885	0.00412	-0.070648	0.002899	0.000153	-0.022888	-0.074158	-0.019073	0.005646	-0.033264	-0.070953	-0.014191	0.008698	-0.1738	0.2977	-0.038452	-0.001068	0.028381	-0.020294	0.30243	0.081635	-0.007935	0.24246	-0.005951	-0.027924	0.13947	-0.001068	-0.021057
26.877	0.00824	-0.10941	-0.007782	0.018768	0.056	0.001526	-0.061798	0.010834	0.002747	-0.035095	-0.005188	-0.035095	-0.019531	-0.041199	-0.011902	-0.006104	0.006561	-0.18982	0.25528	-0.064087	-0.00061	0.029755	0.11566	0.31891	0.074005	-0.015259	-0.39856	-0.001984	0.1709	0.057831	0.004883	-0.018463
26.878	0.001678	-0.12405	-0.018158	-0.001526	0	0.019379	-0.052948	0.009308	0.005188	-0.023499	0.027008	-0.025177	-0.020142	-0.03891	0.11612	-0.000458	0.005646	-0.20615	0.14297	-0.013123	0.003815	0.016785	0.089874	0.1796	0.03006	-0.025177	-0.28473	-0.000916	0.28656	0.049133	0.002441	-0.018158
26.879	0.006409	-0.11505	-0.027924	0.009308	-0.019379	-0.011597	-0.040588	0.009003	-0.004578	-0.041199	0.058136	-0.022125	0.024261	0.005798	0.13184	-0.019836	-0.005188	-0.14862	-0.083466	0.053101	0.011139	0.037079	-0.023346	0.13611	0.016174	-0.009613	0.20462	-0.00473	-0.23941	-0.071259	0.000458	-0.016479
26.88	0.005188	-0.13168	-0.048065	0.011444	0.00946	0.003357	-0.04364	0.009918	0.002899	-0.042419	0.057068	-0.02533	0.028839	-0.016327	-0.008698	0.00473	-0.005493	-0.20538	-0.045166	0.082092	0.019836	0.040588	-0.085602	0.18005	0.31433	-0.00412	0.62515	-0.002899	-0.34958	-0.14084	-0.005951	-0.007935
26.881	-0.00351	-0.090485	-0.044403	0.007477	0.002594	0.014038	-0.054626	0.00946	-0.005341	-0.045624	0.041504	-0.019684	0.032043	0.006409	-0.11475	-0.020142	0.007172	-0.18051	0.082397	0.047455	0.017548	0.024719	-0.037994	0.018158	0.36331	-0.007019	1.4061	0.000305	-0.045166	-0.037079	-0.003815	-0.00885
26.882	0.011292	-0.10498	-0.027771	0.001984	-0.003052	0.014801	-0.052795	0.005035	0.002747	-0.062408	-0.000458	-0.01358	0.047913	-0.033112	-0.08316	0.006409	0.010071	-0.12726	0.50522	-0.057983	0.007629	0.038757	0.1004	-0.061798	0.21149	-0.015564	0.94925	0.006866	-0.03952	-0.055237	-0.001526	-0.010223
26.883	0.007935	-0.10101	-0.015564	0.007935	-0.027313	0.023651	-0.049133	0.009766	0.000153	-0.045013	0.061188	-0.016479	-0.005951	-0.02533	0.023651	0.006256	0.025787	-0.13168	0.49683	-0.049744	-0.009766	-0.005035	0.11063	-0.10025	0.056763	-0.006256	-0.61859	-0.003204	0.14633	-0.20721	0.001221	-0.004272
26.884	0.00946	-0.13672	-0.06546	0.005035	-0.036316	0.039368	-0.055084	0.011597	-0.00061	-0.006866	0.083923	-0.00946	-0.045471	-0.04425	0.09491	0.008087	0.011444	-0.18814	-0.44876	0.059052	-0.001068	0.03006	0.066528	-0.27878	0.083618	-0.009613	-0.83542	-0.002136	0.15091	-0.16556	-0.00061	-0.011749
26.885	-0.006104	-0.10986	-0.11719	0.001221	-0.038605	0.039825	-0.055695	0.005951	-0.000305	-0.01236	-0.19836	-0.007935	-0.076141	-0.047607	0.094604	0.00412	0.004578	-0.1265	-0.12573	0.064392	0.006866	0.031128	-0.013428	-0.17716	-0.071564	-0.011292	-0.10834	-0.001678	0.14496	-0.16007	0.00061	-0.005493
